PathFileType	4	(X/Y/Z)	C:\Users\dbl\Desktop\20210112(1)\20210112\bx_y_10_502.trc
DataRate	CameraRate	NumFrames	NumMarkers	Units	OrigDataRate	OrigDataStartFrame	OrigNumFrames
50.00	50.00	       5	43	mm	50.00	188	       499
Frame#	Time	Top.Head			R.Acromium			L.Acromium			Sternum			R.ASIS			L.ASIS			V.Sacral			R.Thigh.Upper			R.Thigh.Front			R.Thigh.Rear			R.Knee.Lat			R.Knee.Med			R.Shank.Upper			R.Shank.Front			R.Shank.Rear			R.Ankle.Lat			R.Midfoot.Lat			R.Toe.Lat			R.Toe.Tip			R.Toe.Med			R.Ankle.Med			R.Midfoot.Sup			R.Heel			L.Thigh.Upper			L.Thigh.Front			L.Thigh.Rear			L.Knee.Lat			L.Knee.Med			L.Shank.Upper			L.Shank.Front			L.Shank.Rear			L.Ankle.Lat			L.Midfoot.Lat			L.Toe.Lat			L.Toe.Tip			L.Toe.Med			L.Ankle.Med			L.Midfoot.Sup			L.Heel			origin1 front left			origin2 front right			origin 3 back right			origin 4 back leftt			
		X1	Y1	Z1	X2	Y2	Z2	X3	Y3	Z3	X4	Y4	Z4	X5	Y5	Z5	X6	Y6	Z6	X7	Y7	Z7	X8	Y8	Z8	X9	Y9	Z9	X10	Y10	Z10	X11	Y11	Z11	X12	Y12	Z12	X13	Y13	Z13	X14	Y14	Z14	X15	Y15	Z15	X16	Y16	Z16	X17	Y17	Z17	X18	Y18	Z18	X19	Y19	Z19	X20	Y20	Z20	X21	Y21	Z21	X22	Y22	Z22	X23	Y23	Z23	X24	Y24	Z24	X25	Y25	Z25	X26	Y26	Z26	X27	Y27	Z27	X28	Y28	Z28	X29	Y29	Z29	X30	Y30	Z30	X31	Y31	Z31	X32	Y32	Z32	X33	Y33	Z33	X34	Y34	Z34	X35	Y35	Z35	X36	Y36	Z36	X37	Y37	Z37	X38	Y38	Z38	X39	Y39	Z39	X40	Y40	Z40	X41	Y41	Z41	X42	Y42	Z42	X43	Y43	Z43	

188	3.740	-503.50323	92.40759	1745.73706	-592.88116	-84.15357	1445.84741	-571.49738	267.25729	1460.97998	-579.34747	89.99796	1325.62817	-749.70520	-8.10230	1037.18262	-746.43640	211.78120	1053.45813	-948.01221	91.19295	1066.63208	-799.85339	-69.10551	868.62604	-722.40436	-11.24392	811.84814	-815.80975	-52.70826	712.57373	-796.12799	-31.89240	613.04449	-769.06750	75.78549	571.51685	-798.19836	-28.51979	562.56311	-738.28021	12.74688	525.94360	-828.46722	-38.19335	477.07904	-774.07715	-9.92141	203.30663	-666.48016	-70.16668	159.74783	-624.55328	-80.83549	157.33713	-563.12317	-39.75812	163.26825	-605.61169	16.32458	171.48112	-724.44812	71.84544	221.02258	-677.53699	52.71408	163.78398	-797.87103	52.16355	172.30557	-792.83472	278.43756	876.81140	-726.80066	214.06967	820.01373	-822.36414	276.01584	744.04919	-829.74292	250.61720	631.66553	-778.87280	145.13695	571.59247	-818.68634	247.42105	569.02185	-755.97888	207.89304	536.87366	-843.45227	257.64938	489.09613	-777.38794	227.83669	200.83778	-666.87280	299.63098	158.96399	-629.20966	306.64740	161.54591	-563.52887	259.39047	165.38289	-598.79919	224.31857	174.82910	-719.50256	158.17918	222.01282	-677.93500	176.00926	163.35233	-800.36688	176.54976	181.26556	-528.00488	304.04822	146.33952	-518.11774	-72.62867	142.98805	-876.40704	-78.01305	141.06186	-882.62738	295.97961	144.61177	
189	3.760	-516.06299	92.27558	1755.42957	-600.16815	-84.32967	1453.74097	-578.26282	267.51184	1468.67664	-582.69855	89.87408	1332.86475	-745.72449	-7.76617	1038.94287	-742.06854	212.25458	1055.31677	-944.25287	92.18459	1066.20740	-795.66565	-68.76246	869.34467	-718.33411	-11.36986	812.14111	-812.56616	-51.75190	713.11792	-793.24689	-31.37241	613.69165	-765.90063	76.09090	572.05225	-795.59674	-28.07845	563.14661	-735.83325	13.02360	526.00671	-826.48035	-37.49281	477.75940	-774.00360	-9.73184	203.45328	-666.53271	-70.16822	159.73112	-624.61255	-80.83804	157.36212	-563.22119	-39.98241	163.39020	-605.58411	16.23337	171.54745	-723.97351	72.00843	220.56822	-677.48676	52.76162	163.70135	-797.78827	52.25123	172.28246	-788.01685	278.90204	877.66254	-722.18896	214.58121	820.76331	-817.91577	276.20709	744.88519	-826.23657	250.93098	632.66077	-775.79950	145.36459	572.10345	-815.75665	247.63417	569.63953	-753.32074	208.06889	537.12878	-840.97479	257.82785	489.88559	-777.19641	227.84605	201.10356	-666.84216	299.60352	158.96974	-629.15698	306.56064	161.59471	-563.37341	259.37613	165.35503	-598.63586	224.26556	174.86609	-719.24414	158.09265	221.89633	-677.89337	175.98415	163.06198	-800.18427	176.49246	181.41168	-528.01611	304.03568	146.33331	-518.15802	-72.74857	143.01680	-876.31165	-78.05305	141.01169	-882.60193	296.02924	144.65781	
190	3.780	-528.59509	92.20132	1764.56982	-607.31714	-84.40037	1461.15662	-585.07385	267.87549	1475.98169	-586.01355	89.82563	1339.84009	-741.58154	-7.49719	1040.73840	-737.61548	212.65393	1056.96155	-940.45752	93.17143	1065.97278	-791.41943	-68.44907	870.08453	-714.08832	-11.47634	812.47754	-809.20740	-50.96161	713.74658	-790.26331	-30.94307	614.32928	-762.76715	76.34879	572.58087	-792.94214	-27.67760	563.83521	-733.40137	13.24999	525.94702	-824.50391	-36.78846	478.49692	-773.91583	-9.55335	203.57808	-666.60425	-70.16444	159.71996	-624.65717	-80.83693	157.37082	-563.29163	-40.17511	163.53864	-605.61200	16.14858	171.57556	-723.60107	72.14181	220.21721	-677.40057	52.78468	163.58723	-797.70691	52.36594	172.26228	-783.14160	279.38449	878.51910	-717.50867	215.15594	821.52356	-813.41168	276.17096	745.58783	-822.72632	251.18866	633.62878	-772.62158	145.64993	572.62854	-812.80835	247.83463	570.29156	-750.54858	208.18767	537.30396	-838.53540	257.92380	490.69345	-776.97266	227.86615	201.33496	-666.81403	299.57935	158.98447	-629.11310	306.48868	161.66595	-563.18854	259.35080	165.31848	-598.50330	224.26900	174.88181	-718.93420	157.98526	221.76904	-677.92493	175.93610	162.76042	-800.00195	176.41818	181.56619	-528.01422	304.04132	146.36154	-518.15588	-72.82600	143.03546	-876.19470	-78.10909	140.96657	-882.58997	296.05579	144.68935	
191	3.800	-540.97955	92.17049	1773.17480	-614.28381	-84.39171	1468.15735	-591.99512	268.30014	1482.89575	-589.32672	89.85088	1346.55933	-737.24829	-7.25335	1042.59058	-733.03723	213.07303	1058.48572	-936.40552	94.08042	1065.79126	-787.09253	-68.08753	870.82330	-709.71790	-11.52230	812.85663	-805.75751	-50.32236	714.43555	-787.29749	-30.58744	614.86273	-759.75513	76.63747	573.03882	-790.19928	-27.31488	564.52240	-731.02423	13.47685	525.82135	-822.53583	-36.11836	479.26968	-773.83667	-9.37593	203.69618	-666.69122	-70.15106	159.71173	-624.68750	-80.82150	157.37056	-563.31183	-40.28140	163.63885	-605.70105	16.06067	171.56853	-723.32599	72.25688	220.05687	-677.29596	52.78897	163.45949	-797.64307	52.50605	172.26355	-778.24640	279.88965	879.37842	-712.79871	215.78748	822.27161	-809.02332	276.00754	746.24799	-819.29938	251.38220	634.58752	-769.43903	145.99249	573.15845	-809.85168	247.99976	570.95441	-747.72083	208.29356	537.45532	-836.17676	257.94363	491.48965	-776.76263	227.86076	201.47678	-666.79578	299.57938	159.01926	-629.08600	306.44769	161.74323	-563.03986	259.32135	165.27522	-598.39185	224.32671	174.87408	-718.55310	157.87230	221.64867	-678.00543	175.86299	162.53041	-799.82983	176.31035	181.71420	-528.00378	304.05225	146.39130	-518.10052	-72.83401	143.04147	-876.11792	-78.17936	140.97464	-882.57202	296.07623	144.70688	
192	3.820	-553.07605	92.15799	1781.28320	-621.11505	-84.29770	1474.78137	-599.02423	268.80151	1489.43860	-592.60773	89.96123	1353.05518	-732.75372	-6.98474	1044.48572	-728.32715	213.64896	1060.07654	-931.91089	94.82413	1065.39722	-782.64185	-67.62180	871.50629	-705.29773	-11.46190	813.24231	-802.18347	-49.77608	715.13947	-784.32831	-30.28312	615.32611	-756.89380	76.97122	573.37921	-787.36255	-26.99674	565.11615	-728.67377	13.75389	525.74414	-820.54266	-35.49925	479.95969	-773.80273	-9.17051	203.80981	-666.76654	-70.12418	159.71448	-624.71295	-80.79000	157.38673	-563.30896	-40.31006	163.66893	-605.80017	15.97688	171.53656	-723.08618	72.36093	220.05490	-677.20099	52.79649	163.36478	-797.59204	52.65349	172.28163	-773.38489	280.44275	880.23633	-708.08783	216.48334	823.00214	-804.79578	275.85834	746.91229	-815.97357	251.51552	635.52454	-766.30786	146.32260	573.72302	-806.93188	248.12874	571.61340	-744.89124	208.45422	537.60870	-833.89551	257.93579	492.26288	-776.58716	227.80219	201.54562	-666.79663	299.61050	159.06801	-629.09137	306.45404	161.80461	-562.99463	259.29504	165.22179	-598.27625	224.41397	174.85252	-718.15137	157.77026	221.58406	-678.09918	175.79185	162.42052	-799.69275	176.18085	181.84906	-527.99640	304.05249	146.39557	-518.02625	-72.78944	143.03860	-876.10059	-78.26920	141.06032	-882.52942	296.11115	144.72226	
